<svg id="Capa_1" data-name="Capa 1" xmlns="http://www.w3.org/2000/svg" xmlns:xlink="http://www.w3.org/1999/xlink" viewBox="0 0 464.8 384.4"><defs><style>.cls-1{fill:#0172b1;}.cls-2,.cls-6{fill:#fff;}.cls-3{fill:#3cbfbd;}.cls-4,.cls-5{stroke:#000;stroke-miterlimit:10;}.cls-4{stroke-width:2px;}.cls-5{stroke-width:3px;}.cls-6{fill-opacity:0;fill-rule:evenodd;}.cls-7{fill:#7759a6;}.cls-8{fill:url(#Degradado_sin_nombre_19);}.cls-9{fill:url(#Degradado_sin_nombre_2);}.cls-10{fill:#14559a;}.cls-11{fill:url(#Degradado_sin_nombre_3);}.cls-12{fill:#3092c4;}.cls-13{fill:#1969bc;}.cls-14{fill:url(#Degradado_sin_nombre_4);}.cls-15{fill:url(#Degradado_sin_nombre_5);}.cls-16{fill:url(#Degradado_sin_nombre_6);}.cls-17{fill:#2b74b1;}.cls-18{fill:#125a9e;}.cls-19{fill:url(#Degradado_sin_nombre_7);}.cls-20{fill:url(#Degradado_sin_nombre_8);}.cls-21{fill:#0d82ca;}.cls-22{fill:url(#Degradado_sin_nombre_9);}.cls-23{fill:#127bca;}.cls-24{fill:url(#Degradado_sin_nombre_10);}.cls-25{fill:url(#Degradado_sin_nombre_11);}.cls-26{fill:#05a1e6;}.cls-27{fill:url(#Degradado_sin_nombre_12);}.cls-28{fill:url(#Degradado_sin_nombre_13);}.cls-29{fill:url(#Degradado_sin_nombre_14);}.cls-30{fill:#079ae1;}.cls-31{fill:#1e5cb3;}.cls-32{fill:#1d60b5;}.cls-33{fill:#175fab;}.cls-34{fill:url(#Degradado_sin_nombre_15);}.cls-35{fill:#7dcbec;}.cls-36{fill:#5ec5ed;}.cls-37{fill:url(#Degradado_sin_nombre_16);}.cls-38{fill:url(#Degradado_sin_nombre_17);}.cls-39{fill:url(#Degradado_sin_nombre_18);}</style><linearGradient id="Degradado_sin_nombre_19" x1="-726.9" y1="732.57" x2="-726.9" y2="732.5" gradientTransform="matrix(445.39, 0, 0, -794.29, 323944.15, 582035.13)" gradientUnits="userSpaceOnUse"><stop offset="0" stop-color="#0994dc"/><stop offset="0.35" stop-color="#66cef5"/><stop offset="0.85" stop-color="#127bca"/><stop offset="1" stop-color="#127bca"/></linearGradient><linearGradient id="Degradado_sin_nombre_2" x1="-726.97" y1="732.55" x2="-726.97" y2="732.48" gradientTransform="matrix(467.47, 0, 0, -814.52, 340030.44, 596840.88)" gradientUnits="userSpaceOnUse"><stop offset="0" stop-color="#0e76bc"/><stop offset="0.36" stop-color="#36aee8"/><stop offset="0.85" stop-color="#00adef"/><stop offset="1" stop-color="#00adef"/></linearGradient><linearGradient id="Degradado_sin_nombre_3" x1="-727.52" y1="732.36" x2="-727.52" y2="732.4" gradientTransform="matrix(443.88, 0, 0, -825.2, 323133.74, 604542.52)" gradientUnits="userSpaceOnUse"><stop offset="0" stop-color="#1c63b7"/><stop offset="0.5" stop-color="#33bdf2"/><stop offset="1" stop-color="#33bdf2" stop-opacity="0.42"/></linearGradient><linearGradient id="Degradado_sin_nombre_4" x1="-727.39" y1="732.43" x2="-727.39" y2="732.37" gradientTransform="matrix(439.56, 0, 0, -845.68, 319934.38, 619565.7)" gradientUnits="userSpaceOnUse"><stop offset="0" stop-color="#166ab8"/><stop offset="0.4" stop-color="#36aee8"/><stop offset="0.85" stop-color="#0798dd"/><stop offset="1" stop-color="#0798dd"/></linearGradient><linearGradient id="Degradado_sin_nombre_5" x1="-727.02" y1="732.48" x2="-727.02" y2="732.42" gradientTransform="matrix(569.83, 0, 0, -899.24, 414478.59, 658838.43)" gradientUnits="userSpaceOnUse"><stop offset="0" stop-color="#124379"/><stop offset="0.39" stop-color="#1487cb"/><stop offset="0.78" stop-color="#165197"/><stop offset="1" stop-color="#165197"/></linearGradient><linearGradient id="Degradado_sin_nombre_6" x1="-725.85" y1="731.69" x2="-725.81" y2="731.69" gradientTransform="matrix(189.64, 0, 0, -301.96, 137822.83, 221120.75)" gradientUnits="userSpaceOnUse"><stop offset="0" stop-color="#33bdf2" stop-opacity="0.7"/><stop offset="1" stop-color="#1dacd8"/></linearGradient><linearGradient id="Degradado_sin_nombre_7" x1="-727.98" y1="732.43" x2="-727.98" y2="732.47" gradientTransform="matrix(772.88, 0, 0, -963.66, 562877.58, 706018.26)" gradientUnits="userSpaceOnUse"><stop offset="0" stop-color="#136ab4"/><stop offset="0.6" stop-color="#59caf5" stop-opacity="0.55"/><stop offset="1" stop-color="#59caf5" stop-opacity="0.23"/></linearGradient><linearGradient id="Degradado_sin_nombre_8" x1="-725.77" y1="732.47" x2="-725.73" y2="732.47" gradientTransform="matrix(703.34, 0, 0, -968.37, 510610.67, 709488.35)" gradientUnits="userSpaceOnUse"><stop offset="0" stop-color="#05a1e6" stop-opacity="0.25"/><stop offset="1" stop-color="#05a1e6"/></linearGradient><linearGradient id="Degradado_sin_nombre_9" x1="-725.48" y1="732.29" x2="-725.48" y2="732.34" gradientTransform="matrix(479.01, 0, 0, -720.93, 347675.63, 528132.98)" gradientUnits="userSpaceOnUse"><stop offset="0" stop-color="#318ed5"/><stop offset="1" stop-color="#38a7e4"/></linearGradient><linearGradient id="Degradado_sin_nombre_10" x1="-725.53" y1="732.78" x2="-725.53" y2="732.85" gradientTransform="matrix(445.35, 0, 0, -557.89, 323280.77, 409017.61)" gradientUnits="userSpaceOnUse"><stop offset="0" stop-color="#05a1e6"/><stop offset="1" stop-color="#05a1e6" stop-opacity="0.55"/></linearGradient><linearGradient id="Degradado_sin_nombre_11" x1="-725.75" y1="732.55" x2="-725.75" y2="732.59" gradientTransform="matrix(512.89, 0, 0, -791.93, 372398.29, 580335.7)" gradientUnits="userSpaceOnUse"><stop offset="0" stop-color="#1959a6"/><stop offset="0.5" stop-color="#05a1e6"/><stop offset="0.92" stop-color="#7ec5ea"/><stop offset="1" stop-color="#7ec5ea"/></linearGradient><linearGradient id="Degradado_sin_nombre_12" x1="-725.9" y1="732.45" x2="-725.91" y2="732.49" gradientTransform="matrix(709.74, 0, 0, -966.85, 515367.47, 708373.3)" gradientUnits="userSpaceOnUse"><stop offset="0" stop-color="#165096"/><stop offset="1" stop-color="#0d82ca"/></linearGradient><linearGradient id="Degradado_sin_nombre_13" x1="-729.6" y1="732.08" x2="-729.6" y2="732.12" gradientTransform="matrix(319.99, 0, 0, -558.85, 233691.35, 409309.22)" gradientUnits="userSpaceOnUse"><stop offset="0" stop-color="#05a1e6"/><stop offset="0.87" stop-color="#0495d6"/><stop offset="1" stop-color="#0495d6"/></linearGradient><linearGradient id="Degradado_sin_nombre_14" x1="-728.38" y1="732.46" x2="-728.39" y2="732.41" gradientTransform="matrix(588.57, 0, 0, -940.65, 428938.72, 689152.69)" gradientUnits="userSpaceOnUse"><stop offset="0" stop-color="#38a7e4" stop-opacity="0.33"/><stop offset="0.96" stop-color="#0e88d3"/><stop offset="1" stop-color="#0e88d3"/></linearGradient><linearGradient id="Degradado_sin_nombre_15" x1="-728.01" y1="732.46" x2="-728.01" y2="732.42" gradientTransform="matrix(686.34, 0, 0, -958.12, 499890.21, 701951.52)" gradientUnits="userSpaceOnUse"><stop offset="0" stop-color="#168cd4"/><stop offset="0.5" stop-color="#1c87cc"/><stop offset="1" stop-color="#154b8d"/></linearGradient><linearGradient id="Degradado_sin_nombre_16" x1="-726.33" y1="743.85" x2="-726.3" y2="743.95" gradientTransform="translate(230417.79 -30706.9) scale(316.99 41.5)" gradientUnits="userSpaceOnUse"><stop offset="0" stop-color="#97d6ee"/><stop offset="0.7" stop-color="#55c1ea"/><stop offset="1" stop-color="#55c1ea"/></linearGradient><linearGradient id="Degradado_sin_nombre_17" x1="-726.8" y1="738.8" x2="-726.77" y2="738.75" gradientTransform="translate(188070.71 -53824.95) scale(258.52 73.09)" gradientUnits="userSpaceOnUse"><stop offset="0" stop-color="#7accec"/><stop offset="1" stop-color="#3fb7ed"/></linearGradient><linearGradient id="Degradado_sin_nombre_18" x1="-728.29" y1="732.35" x2="-728.29" y2="732.3" gradientTransform="matrix(508.25, 0, 0, -787.45, 370378.64, 576856.03)" gradientUnits="userSpaceOnUse"><stop offset="0" stop-color="#1da7e7"/><stop offset="1" stop-color="#37abe7" stop-opacity="0"/></linearGradient></defs><circle class="cls-1" cx="234.4" cy="192.2" r="144.9"/><path class="cls-2" d="M353.5,266.3a3.8,3.8,0,0,0,3.8-3.8V99.8a3.8,3.8,0,0,0-3.8-3.8H115.2a3.8,3.8,0,0,0-3.8,3.8V262.5a3.8,3.8,0,0,0,3.8,3.8Z"/><path d="M353.5,90.1H115.2a9.82,9.82,0,0,0-9.8,9.8V262.6a9.82,9.82,0,0,0,9.8,9.8H206v-6H115.2a3.8,3.8,0,0,1-3.8-3.8V99.8a3.8,3.8,0,0,1,3.8-3.8H353.4a3.8,3.8,0,0,1,3.8,3.8V262.5a3.8,3.8,0,0,1-3.8,3.8H262.6v6h90.8a9.82,9.82,0,0,0,9.8-9.8V99.8a9.65,9.65,0,0,0-9.7-9.7Z"/><path class="cls-2" d="M169.7,291.3v6.2a.43.43,0,0,0,.4.4H298.5c.2,0,.3-.1.4-.3v-6.3c0-.2-.1-.3-.3-.4H170.1C169.9,290.9,169.8,291.1,169.7,291.3Z"/><path d="M262.8,291h35.9c.2,0,.3.2.4.4v6.2c0,.2-.1.3-.3.4H170.1c-.2,0-.3-.1-.4-.3h0v-6.3c0-.2.2-.3.4-.4H206v-6H170.1a6.27,6.27,0,0,0-6.3,6.3v6.2a6.27,6.27,0,0,0,6.3,6.3H298.5a6.27,6.27,0,0,0,6.3-6.3v-6.2a6.27,6.27,0,0,0-6.3-6.3H262.6v6Z"/><rect class="cls-2" x="212" y="272.2" width="44.7" height="12.8"/><path d="M262.8,266.3H206.2V291h56.6V266.3Zm-6,18.7H212.1V272.2h44.7Z"/><path class="cls-3" d="M340.9,298.6a14.05,14.05,0,0,1,2.9,0c2.7.4,4.4-.5,5.2-3.3,1.1-4,3.3-6.8,7.7-7.6a6.63,6.63,0,0,0,1.9-.9,3.18,3.18,0,0,1,3.5,0c5.3,3.5,9.4,2.3,13.1-2.7,1.3-1.7,2.3-2.9,1.1-5-2.2-3.9-3-7.9-.2-11.9a1.33,1.33,0,0,0,.3-.8,3.61,3.61,0,0,1,2.9-3.2c6-1.4,8-5,7.2-11-.4-2.5-.7-4.2-3.3-4.9-4-1.1-7.1-3.3-7.9-7.8a3.7,3.7,0,0,0-.5-1.1,4.07,4.07,0,0,1-.2-4.6c3.3-5.1,1.9-8.9-2.7-12.5-2-1.6-3.4-2.2-5.8-1.1-2,.9-4.3,2.7-6.6,1.9-4.4-1.6-9.3-2.7-10.4-8.4-.6-3.1-2.7-3.6-5.7-3.8-5.5-.5-8.6,1.2-10.2,6.6-1.2,3.8-8.9,6.9-12.5,5-4.7-2.6-7.9-1.8-11.4,2.3-2.2,2.6-2.9,4.4-1.4,7.4.9,1.8,2.4,3.7,1.6,5.7-1.7,4.3-2.8,9.3-8.5,10.4-.5.1-.9.5-1.4.6a2.88,2.88,0,0,0-2.3,3.2v.2a11.48,11.48,0,0,1,0,3.7c-.8,4.1,1,6.1,4.9,7.6a10.64,10.64,0,0,1,6.5,13.5,6.12,6.12,0,0,1-.5,1.2c-1.8,3.8-.9,6,1.9,8.9,3.1,3.3,5.7,3.7,9.7,1.9a10.57,10.57,0,0,1,13.9,5.6l.1.2C335.1,297.5,337,299.9,340.9,298.6Z"/><path class="cls-4" d="M339,300.2c-4.2,0-5.8-4.4-6.5-6.2a8.9,8.9,0,0,0-5.2-5.2,8.77,8.77,0,0,0-7.1.1c-4.6,2.1-7.7,1.5-11.1-2.1-2.9-3.1-4.2-5.8-2.1-10.3a9.33,9.33,0,0,0-4.2-12.5c-.4-.2-.7-.3-1.1-.5-3.2-1.2-6.7-3.3-5.6-8.9a18.19,18.19,0,0,0,0-3.3,4.06,4.06,0,0,1,3.1-4.7h0c.1-.1.3-.1.4-.2a3.58,3.58,0,0,1,1.1-.4c4.3-.8,5.5-4.1,7-7.9a8.65,8.65,0,0,1,.7-1.7c.4-1.1-.3-2.3-1-3.6-.2-.4-.4-.7-.6-1.1-1.8-3.7-.8-6.1,1.6-8.8,3.9-4.5,7.8-5.3,12.9-2.5,1.3.7,3.8.6,6.2-.4s4.1-2.5,4.5-3.9c1.8-5.7,5.3-8,11.5-7.4,2.7.3,6,.6,6.8,4.8.9,4.5,4.3,5.7,8.3,7l1.4.5c1.3.5,2.7-.3,4.3-1.2a9.14,9.14,0,0,1,1.4-.7c3.2-1.5,5.1-.3,7.1,1.2,5.4,4.3,6.4,8.9,2.9,14.2a2.71,2.71,0,0,0,.2,3.3,4.59,4.59,0,0,1,.7,1.6c.6,3.6,2.8,5.6,7,6.8,3.5,1,3.8,3.6,4.1,6,.9,6.9-1.7,10.9-8.1,12.3a2.35,2.35,0,0,0-1.9,2.3,5,5,0,0,1-.5,1.3c-2.2,3.1-2.1,6.4.2,10.6,1.5,2.7.2,4.5-1,6.1l-.2.2c-4.2,5.7-9.1,6.7-14.8,3a1.8,1.8,0,0,0-2.2,0l-.4.3a6.39,6.39,0,0,1-1.9.8c-3.5.6-5.6,2.8-6.7,6.7-.9,3.3-3.1,4.7-6.5,4.1H341Zm-15.3-14.6a11.66,11.66,0,0,1,4.5.9,11.89,11.89,0,0,1,6.6,6.6c1.8,4.6,3.5,5.1,5.7,4.4l.2-.1h1.5a10.87,10.87,0,0,1,1.8.1c2.2.4,3.2-.3,3.8-2.4,1.3-4.9,4.2-7.7,8.6-8.5a3.13,3.13,0,0,0,1-.5l.5-.3a4.23,4.23,0,0,1,4.7.1c4.6,3,8,2.3,11.4-2.4l.2-.2c1.2-1.7,1.6-2.2.9-3.4-2.8-5-2.8-9.3-.1-13.2a.6.6,0,0,0,.1-.4,5,5,0,0,1,3.8-4.2c5.1-1.2,7-4,6.2-9.6-.4-2.6-.6-3.4-2.4-3.9-5.1-1.4-8-4.3-8.8-8.8l-.3-.6a5.28,5.28,0,0,1-.2-6c2.8-4.2,2.1-7.4-2.4-10.9-1.9-1.5-2.7-1.8-4.5-.9-.4.2-.8.4-1.3.7-1.7.9-3.9,2.1-6.2,1.3l-1.4-.5c-4.1-1.4-8.8-3-9.9-8.9-.4-2.1-1.4-2.5-4.6-2.9-5.1-.5-7.5,1.1-8.9,5.7-.6,2.1-2.9,4.2-6,5.4s-6.3,1.4-8.3.3c-4.1-2.2-6.7-1.7-9.9,2-2.1,2.4-2.4,3.8-1.2,6.1a3.13,3.13,0,0,1,.5,1c.9,1.6,2,3.6,1.2,5.7-.2.6-.4,1.1-.6,1.7-1.5,3.9-3.1,8.4-8.8,9.5a.76.76,0,0,0-.4.2,3.55,3.55,0,0,1-.9.4c-1.2.3-1.5.8-1.4,2.1a13.41,13.41,0,0,1,0,4c-.6,3.2.5,4.8,4.1,6.2a11.7,11.7,0,0,1,7.2,15h0a5.17,5.17,0,0,1-.6,1.3c-1.4,3-1.1,4.6,1.6,7.5s4.7,3.3,8.3,1.6a10.25,10.25,0,0,1,4.7-1.2Z"/><path class="cls-2" d="M322.4,254.1A19.25,19.25,0,1,0,341.8,235h-.3a19,19,0,0,0-19.2,18.7v.4Z"/><path class="cls-5" d="M341.6,274.7a20.46,20.46,0,0,1,0-40.9h0a20.45,20.45,0,1,1,0,40.9Zm0-38.5h0a17.69,17.69,0,0,0-18,17.2v.7h0a17.67,17.67,0,0,0,17.3,18.1h.6a18,18,0,0,0,.1-36Z"/><path class="cls-6" d="M149.7,92.5H319V261.8H149.7Z"/><path class="cls-2" d="M74.11,79H180v69.9a3.71,3.71,0,0,1-3.55,3.73H77.85A3.73,3.73,0,0,1,74.11,149h0Z"/><path class="cls-1" d="M117.94,64.63l-2.37-3.46a6,6,0,0,0-4.83-2.55H77.85a3.75,3.75,0,0,0-3.74,3.74V78.94h106V70.83a3.67,3.67,0,0,0-3.73-3.64H122.77a5.58,5.58,0,0,1-4.83-2.56Z"/><path class="cls-4" d="M176.36,66.27H122.77a5.1,5.1,0,0,1-4.1-2.09l-2.37-3.46a6.84,6.84,0,0,0-5.65-2.92H77.85a4.67,4.67,0,0,0-4.65,4.65V149a4.67,4.67,0,0,0,4.65,4.65h98.51A4.66,4.66,0,0,0,181,149h0v-6.93a.91.91,0,0,0-1.82,0V149a2.68,2.68,0,0,1-2.73,2.73H77.85A2.69,2.69,0,0,1,75.11,149V79.94H179.18v62.15a.91.91,0,0,0,1.82,0V70.92a4.72,4.72,0,0,0-4.64-4.65ZM75,62.36a2.68,2.68,0,0,1,2.65-2.74h33a4.93,4.93,0,0,1,4.1,2.19l2.37,3.46a6.87,6.87,0,0,0,5.65,2.92h53.59a2.68,2.68,0,0,1,2.73,2.73V78H75Z"/><path class="cls-1" d="M110,69.28a3,3,0,1,1-3-3A2.93,2.93,0,0,1,110,69.28Z"/><path class="cls-3" d="M99.08,69.28a3,3,0,1,1-3-3h0A2.93,2.93,0,0,1,99.08,69.28Z"/><path class="cls-7" d="M88.15,69.28a3,3,0,1,1-3-3,3,3,0,0,1,3,3Z"/><path d="M107.37,131.34a3.93,3.93,0,0,1-2.91-1.28L91.24,116.85a4.24,4.24,0,0,1,0-5.83L104.46,97.9a4.12,4.12,0,1,1,5.83,5.83h0L100,114l10.3,10.29a4.16,4.16,0,0,1,0,5.84,4.81,4.81,0,0,1-2.92,1.18Z"/><path d="M138.9,131.34a4.09,4.09,0,0,1-4.1-4.1,4,4,0,0,1,1.19-2.83l10.29-10.29L136,103.82A4.12,4.12,0,0,1,141.82,98L155,111.2a4.24,4.24,0,0,1,0,5.83l-13.21,13.13a4.93,4.93,0,0,1-2.92,1.18Z"/><path d="M118.4,131.34a4.08,4.08,0,0,1-4.1-4.1,3.83,3.83,0,0,1,.27-1.46L125,99.35a4.07,4.07,0,0,1,7.56,3l-10.38,26.43a4.09,4.09,0,0,1-3.74,2.55Z"/><path class="cls-8" d="M181.65,175.33c3.78,11.55,5.21,32.16,16.26,32.16a13.73,13.73,0,0,0,2.54-.24c-10-2.34-11.23-22.73-17.36-33.28-.49.44-1,.9-1.44,1.36"/><path class="cls-9" d="M183.09,174c6.13,10.55,7.32,30.94,17.36,33.28a17.36,17.36,0,0,0,2.37-.64c-9-4.42-11.5-24.21-18.46-33.74-.43.35-.86.72-1.27,1.1"/><path class="cls-10" d="M191.92,167.69a13.92,13.92,0,0,0-2.55.24,19.61,19.61,0,0,0-6.79,2.84,17.71,17.71,0,0,1,1.78,2.1,24.34,24.34,0,0,1,6.94-4.22,14.64,14.64,0,0,1,2.59-.72,7.7,7.7,0,0,0-2-.24"/><path class="cls-11" d="M209.86,202.54c1-.77,1.88-1.58,2.77-2.43-3.84-11.5-5.21-32.41-16.34-32.41a13.09,13.09,0,0,0-2.4.23c10.14,2.52,11.43,24.56,16,34.61"/><path class="cls-12" d="M193.89,167.93a7.28,7.28,0,0,0-2-.24h4.37a13.09,13.09,0,0,0-2.4.23"/><path class="cls-13" d="M209.66,205a16.52,16.52,0,0,1-1.25-1.36,23.12,23.12,0,0,1-5.59,3,9,9,0,0,0,2.08.71,8.2,8.2,0,0,0,1.78.17,11.65,11.65,0,0,0,5.12-.91,9.88,9.88,0,0,1-2.14-1.6"/><path class="cls-14" d="M191.3,168.65c9.08,4.75,9.87,26.25,17.11,35,.49-.34,1-.71,1.45-1.08-4.54-10-5.83-32.09-16-34.61a14.64,14.64,0,0,0-2.59.72"/><path class="cls-15" d="M184.36,172.87c7,9.53,9.45,29.32,18.46,33.74a23.12,23.12,0,0,0,5.59-3c-7.24-8.72-8-30.22-17.11-35a24.21,24.21,0,0,0-6.94,4.22"/><path class="cls-16" d="M177.2,175.05a105,105,0,0,0-3.56,9.94,74.29,74.29,0,0,1,8-9.66,30.65,30.65,0,0,0-1.18-3.08,39.58,39.58,0,0,0-3.27,2.8"/><path class="cls-17" d="M181.43,171.53c-.32.24-.64.47-1,.72a30.65,30.65,0,0,1,1.18,3.08c.47-.46.95-.92,1.44-1.36a19.31,19.31,0,0,0-1.66-2.44"/><path class="cls-18" d="M182.58,170.77l-1.15.76a19.31,19.31,0,0,1,1.66,2.44c.41-.38.84-.75,1.27-1.1a17.71,17.71,0,0,0-1.78-2.1"/><path class="cls-19" d="M244.49,166.81c-5.14,19.79-15.86,35.7-24.85,39.7h0l-.49.21-.06,0-.14.06-.06,0-.22.08-.1,0-.11,0-.11,0-.09,0-.19.06-.08,0-.13,0-.09,0-.14,0-.18,0a3.58,3.58,0,0,0,1.29.23c8.52,0,17.12-15.27,31.34-40.68h-5.58Z"/><path class="cls-20" d="M171.79,168.49h0s0,0,0,0h0l.14-.05h0s0,0,0,0l.15,0h0l.32-.11,0,0,.14,0,.07,0,.14,0,.05,0,.47-.12h.06l.14,0,.07,0,.14,0h0l.28-.05h.06l.13,0h.08l.12,0a.08.08,0,0,0,.07,0l.31,0a9.08,9.08,0,0,0-.91,0c-9.6,0-22.82,17.81-28.78,40.88h1.15q2.85-5.1,5.18-9.64c4.18-16.34,12.67-27.48,20.22-30.43"/><path class="cls-21" d="M177.2,175.05a39.58,39.58,0,0,1,3.27-2.8c-.24-.52-.5-1-.78-1.51a18.44,18.44,0,0,0-2.49,4.31"/><path class="cls-21" d="M178,168.63a8.26,8.26,0,0,1,1.7,2.11,6.6,6.6,0,0,1,.49-.55,9.37,9.37,0,0,0-2.32-1.63l.11.05,0,0"/><path class="cls-22" d="M151.57,198.92c8.76-16.87,12.9-27.54,20.22-30.43-7.54,2.95-16,14.1-20.22,30.43"/><path class="cls-23" d="M180.18,170.19a6.6,6.6,0,0,0-.49.55c.28.49.54,1,.78,1.51.32-.25.64-.48,1-.72a13.14,13.14,0,0,0-1.25-1.34"/><path class="cls-24" d="M155.55,208.48a.47.47,0,0,1-.16,0h-.19l-.32,0h0c8.85-.25,12.9-4.69,14.91-11.12,1.53-4.88,2.78-9,3.88-12.43a175.74,175.74,0,0,0-11.18,18.42,9.22,9.22,0,0,1-6.91,5.07"/><path class="cls-25" d="M155.55,208.48a9.17,9.17,0,0,0,6.91-5.07A178.52,178.52,0,0,1,173.64,185a102.26,102.26,0,0,1,3.56-9.94c-7.39,7-14.81,18.73-21.65,33.42"/><path class="cls-26" d="M151.57,198.92q-2.34,4.53-5.18,9.64h3.34a80.72,80.72,0,0,1,1.84-9.64"/><path class="cls-27" d="M174.62,167.76h-.07a.25.25,0,0,1-.12,0,.12.12,0,0,0-.08,0l-.13,0h-.06l-.28,0h0l-.14,0-.07,0-.14,0h-.06l-.47.12-.05,0-.14,0-.07,0-.14,0h0l-.32.12-.15.05-.06,0-.14.06,0,0c-7.32,2.89-11.47,13.56-20.22,30.43a80.94,80.94,0,0,0-1.84,9.63h5.15l.32,0h0l.13,0h.2c6.84-14.7,14.26-26.4,21.65-33.43a18.6,18.6,0,0,1,2.48-4.31,8.07,8.07,0,0,0-1.7-2.12h0l-.11,0-.1-.05-.1-.05-.12,0-.09,0-.2-.08-.08,0-.15-.06s-.05,0-.07,0l-.2-.07h0l-.23-.06a.07.07,0,0,0-.06,0l-.19,0,0,0-.48-.1,0,0-.21,0h-.05l-.25,0h0l-.19,0-.31,0"/><path class="cls-28" d="M224.44,177.77c-1.69,5.39-3.05,9.84-4.24,13.5a146.83,146.83,0,0,0,13.51-23.59c-5.06,1.59-7.76,5.23-9.27,10.09"/><path class="cls-29" d="M220.35,206.18c-.24.12-.47.23-.71.33,9-4,19.71-19.91,24.85-39.7h-1c-11.8,21.07-15.59,35.17-23.1,39.37"/><path class="cls-30" d="M214.48,204.41c2-2.39,3.55-6.45,5.72-13.14a65.71,65.71,0,0,1-7.56,8.83s0,0,0,0a23.11,23.11,0,0,0,1.84,4.29"/><path class="cls-13" d="M214.48,204.41a8.07,8.07,0,0,1-2.16,1.89l-.52.28a7.56,7.56,0,0,0,2.74.86l.45,0h1.3l.18,0h0l.05,0,.19,0h.06l.21,0h0l.42-.09a6.08,6.08,0,0,1-3-2.85"/><path class="cls-31" d="M197.91,207.49a13.73,13.73,0,0,0,2.54-.24,17.36,17.36,0,0,0,2.37-.64,9,9,0,0,0,2.08.71,8.2,8.2,0,0,0,1.78.17Z"/><path class="cls-31" d="M206.68,207.49a11.65,11.65,0,0,0,5.12-.91,7.56,7.56,0,0,0,2.74.86l.45,0h-8.31Z"/><path class="cls-32" d="M215.49,207.49h.81l.17,0h.07a1.25,1.25,0,0,1,.19,0,.06.06,0,0,0,.05,0l.22,0h0l.42-.09a3.76,3.76,0,0,0,1.28.23h-3.24Z"/><path class="cls-33" d="M212.63,200.12h0c-.88.85-1.81,1.66-2.77,2.43-.47.37-1,.73-1.45,1.08a16.48,16.48,0,0,0,1.26,1.36,9.46,9.46,0,0,0,2.13,1.59c.18-.08.35-.18.53-.27a8,8,0,0,0,2.15-1.89,23.11,23.11,0,0,1-1.84-4.29"/><path class="cls-34" d="M240.15,166.81h-5.23l-.83,0-.39.82a144.9,144.9,0,0,1-13.51,23.59C218,198,216.43,202,214.47,204.4a6.13,6.13,0,0,0,3,2.85l.09,0h.08l.15,0,.08,0,.13,0,.08,0,.19-.06.1,0,.11,0,.11,0,.09,0,.23-.08.06,0,.14-.06.06,0,.48-.2h0l.7-.34c7.52-4.2,11.31-18.3,23.1-39.37Z"/><path class="cls-35" d="M174.93,167.73a.06.06,0,0,1,0,0h.19l.24,0a.06.06,0,0,1,.05,0l.21,0,.05,0,.49.1,0,0,.19.05s0,0,.06,0l.23.06,0,0,.2.07.08,0,.14.06a.19.19,0,0,1,.08,0l.2.08.09,0,.12,0,.1.05.1.05a9.37,9.37,0,0,1,2.32,1.63,7.39,7.39,0,0,1,.83-.75,9,9,0,0,0-5.37-1.74c-.24,0-.47,0-.71,0"/><path class="cls-36" d="M180.18,170.19a13.14,13.14,0,0,1,1.25,1.34l1.15-.76a11.83,11.83,0,0,0-1.58-1.33,8.28,8.28,0,0,0-.82.75"/><path class="cls-37" d="M174.93,167.73c.24,0,.47,0,.71,0a9,9,0,0,1,5.36,1.74c1.65-1.3,3.64-1.75,6.4-1.75H174c.31,0,.61,0,.91,0"/><path class="cls-38" d="M187.4,167.69c-2.76,0-4.75.45-6.4,1.75a11.83,11.83,0,0,1,1.58,1.33,19.61,19.61,0,0,1,6.79-2.84,13.6,13.6,0,0,1,2.55-.24Z"/><path class="cls-39" d="M220.2,191.28c1.19-3.67,2.55-8.12,4.24-13.51,1.52-4.87,4.21-8.5,9.27-10.09l.39-.82c-8.25.49-12.1,4.68-14,10.89-3.39,10.84-5.44,17.87-7.42,22.35a66.22,66.22,0,0,0,7.56-8.82"/><path d="M232.29,204.61h-.93v2.9H231v-2.9H230v-.35h2.25v.35Zm3.83,2.9h-.38v-2.18c0-.17,0-.39,0-.63a2.28,2.28,0,0,1-.1.31l-1.11,2.5h-.18L233.27,205a1.18,1.18,0,0,1-.1-.33h0a5.1,5.1,0,0,1,0,.63v2.18h-.36v-3.25h.5l1,2.27a2.78,2.78,0,0,1,.14.39h0c.06-.18.12-.31.15-.4l1-2.26h.48v3.25Z"/><path d="M318,168.58a.38.38,0,0,0-.12-.32.72.72,0,0,0-.47-.12h-.31V169h.38c.35,0,.52-.14.52-.43Zm.5,1.81h-.44l-.27-.62c-.15-.3-.3-.45-.46-.45h-.23v1.07h-.36v-2.55h.72a1.1,1.1,0,0,1,.72.21.61.61,0,0,1,.21.48.64.64,0,0,1-.17.45,1,1,0,0,1-.48.25h0c.14,0,.28.19.42.47l.34.68Zm.79-1.25a1.76,1.76,0,1,0-.52,1.26,1.67,1.67,0,0,0,.52-1.26Zm.24,0a1.89,1.89,0,0,1-.58,1.41,2,2,0,0,1-1.43.57,2,2,0,0,1-1.43-.55,1.92,1.92,0,0,1-.57-1.42,1.89,1.89,0,0,1,.58-1.41,2,2,0,0,1,1.43-.58,2,2,0,0,1,1.41.55,1.87,1.87,0,0,1,.59,1.43Zm-54.42,7.1H263.9v-7.07c0-.55,0-1.23.1-2h0a6.44,6.44,0,0,1-.32,1l-3.58,8.09h-.61l-3.59-8a5.35,5.35,0,0,1-.31-1.07h0c0,.42.06,1.1.06,2.05v7h-1.19V165.71H256l3.22,7.33a9.92,9.92,0,0,1,.48,1.26h.05q.31-.86.51-1.29l3.29-7.3h1.55v10.52Zm3.79,0h-1.2v-7.51h1.2Zm.21-10.21a.79.79,0,0,1-.79.79.77.77,0,0,1-.78-.79.73.73,0,0,1,.23-.55.7.7,0,0,1,.55-.22.77.77,0,0,1,.79.77Zm7.29,9.86a3.9,3.9,0,0,1-2.06.53,3.41,3.41,0,0,1-2.61-1.07,3.82,3.82,0,0,1-1-2.69,4.18,4.18,0,0,1,1.06-3,3.68,3.68,0,0,1,2.85-1.14,3.9,3.9,0,0,1,1.74.38v1.24a3,3,0,0,0-1.79-.59,2.4,2.4,0,0,0-1.87.8,3,3,0,0,0-.76,2.18,3,3,0,0,0,.69,2.08,2.39,2.39,0,0,0,1.86.76,3,3,0,0,0,1.85-.64v1.14Zm5.74-5.95a1.53,1.53,0,0,0-.92-.24,1.49,1.49,0,0,0-1.23.66,3.29,3.29,0,0,0-.57,2.05v3.83h-1.2v-7.51h1.2v1.54h0a2.66,2.66,0,0,1,.81-1.26,1.77,1.77,0,0,1,1.15-.42,2,2,0,0,1,.73.11v1.24Zm6.7,2.55a3.32,3.32,0,0,0-.65-2.2,2.26,2.26,0,0,0-1.77-.72,2.32,2.32,0,0,0-1.8.73,3.23,3.23,0,0,0-.71,2.22,3.06,3.06,0,0,0,.68,2.11,2.31,2.31,0,0,0,1.83.76,2.21,2.21,0,0,0,1.81-.77,3.33,3.33,0,0,0,.61-2.13m1.23,0a4.06,4.06,0,0,1-1,2.88,3.55,3.55,0,0,1-2.73,1.09,3.41,3.41,0,0,1-2.68-1.09,3.89,3.89,0,0,1-1-2.76,4,4,0,0,1,1.1-3,3.73,3.73,0,0,1,2.72-1,3.39,3.39,0,0,1,2.63,1,4.19,4.19,0,0,1,.94,2.87m6,1.78a2,2,0,0,1-.69,1.53,3,3,0,0,1-2.06.66,3.71,3.71,0,0,1-1.86-.45v-1.3a3,3,0,0,0,1.95.72c1,0,1.43-.35,1.43-1a.93.93,0,0,0-.32-.72,5.07,5.07,0,0,0-1.23-.69,4,4,0,0,1-1.34-.85,1.93,1.93,0,0,1-.48-1.36,2,2,0,0,1,.74-1.56,2.9,2.9,0,0,1,1.91-.62,3.66,3.66,0,0,1,1.61.35v1.21a2.91,2.91,0,0,0-1.71-.53,1.46,1.46,0,0,0-.95.29,1,1,0,0,0-.37.76,1,1,0,0,0,.31.77,3.9,3.9,0,0,0,1.12.63,4.29,4.29,0,0,1,1.39.83,1.84,1.84,0,0,1,.55,1.38m7.35-1.74a3.32,3.32,0,0,0-.65-2.2,2.23,2.23,0,0,0-1.77-.72,2.32,2.32,0,0,0-1.8.73,3.23,3.23,0,0,0-.71,2.22,3.06,3.06,0,0,0,.68,2.11,2.34,2.34,0,0,0,1.83.76,2.21,2.21,0,0,0,1.81-.77,3.28,3.28,0,0,0,.61-2.13m1.23,0a4.06,4.06,0,0,1-1,2.88,3.52,3.52,0,0,1-2.73,1.09,3.42,3.42,0,0,1-2.68-1.09,3.89,3.89,0,0,1-1-2.76,4,4,0,0,1,1.1-3,3.76,3.76,0,0,1,2.73-1,3.37,3.37,0,0,1,2.62,1,4.14,4.14,0,0,1,.94,2.87m5.3-6.28a1.6,1.6,0,0,0-.8-.19q-1.26,0-1.26,1.59v1.16h1.76v1h-1.76v6.5h-1.2v-6.5H305.4v-1h1.28V167.5a2.49,2.49,0,0,1,.77-1.95,2.32,2.32,0,0,1,1.62-.6,2.28,2.28,0,0,1,.87.13v1.08Zm4.75,10a2.34,2.34,0,0,1-1.13.24c-1.31,0-2-.73-2-2.21v-4.44H310.3v-1h1.29v-1.84l1.21-.39v2.23h1.89v1H312.8V174a1.75,1.75,0,0,0,.25,1.08,1.05,1.05,0,0,0,.86.32,1.29,1.29,0,0,0,.78-.24Z"/><path d="M249.69,205.54a2.17,2.17,0,0,1-2.17,2.17,2,2,0,0,1-1.5-.64,2.24,2.24,0,0,1,0-3.07,2,2,0,0,1,1.5-.63,2.17,2.17,0,0,1,2.17,2.17m26.92,1.73h-3.92l-14.23-22a10.33,10.33,0,0,1-.86-1.73h-.12a29.1,29.1,0,0,1,.15,3.79v19.92H254.4V179.69h4.2l13.8,21.64c.55.86.93,1.47,1.12,1.84h.08a28.4,28.4,0,0,1-.2-4V179.69h3.21v27.58Zm20.73,0H282.72V179.69h14v2.93H286v9.17h10v2.92H286v9.64h11.39v2.92Zm22.17-24.65h-7.95v24.65h-3.23V182.62h-8v-2.93h19.14v2.93Z"/></svg>